<mxfile host="app.diagrams.net" modified="2023-03-14T09:21:32.929Z" agent="5.0 (Macintosh; Intel Mac OS X 10_15_7) AppleWebKit/537.36 (KHTML, like Gecko) Chrome/109.0.0.0 Safari/537.36" etag="dX-C9wQ0p5TdR6RudApo" version="21.0.6" type="github">
  <diagram name="第 1 页" id="9AwBhF7ALhuIIWXh8ehV">
    <mxGraphModel dx="1434" dy="739" grid="1" gridSize="10" guides="1" tooltips="1" connect="1" arrows="1" fold="1" page="1" pageScale="1" pageWidth="1654" pageHeight="1169" math="0" shadow="0">
      <root>
        <mxCell id="0" />
        <mxCell id="1" parent="0" />
        <mxCell id="6N2ncFl7vaVKxM3kQHem-1" value="" style="rounded=0;whiteSpace=wrap;html=1;fillColor=#f8cecc;strokeColor=none;" vertex="1" parent="1">
          <mxGeometry x="440" y="120" width="40" height="280" as="geometry" />
        </mxCell>
        <mxCell id="6N2ncFl7vaVKxM3kQHem-2" value="" style="rounded=0;whiteSpace=wrap;html=1;fillColor=#f8cecc;strokeColor=none;" vertex="1" parent="1">
          <mxGeometry x="600" y="120" width="60" height="280" as="geometry" />
        </mxCell>
        <mxCell id="6N2ncFl7vaVKxM3kQHem-3" value="" style="rounded=0;whiteSpace=wrap;html=1;fillColor=#f8cecc;strokeColor=none;" vertex="1" parent="1">
          <mxGeometry x="780" y="120" width="30" height="280" as="geometry" />
        </mxCell>
        <mxCell id="6N2ncFl7vaVKxM3kQHem-4" value="" style="shape=flexArrow;endArrow=classic;html=1;rounded=0;width=14;endSize=5.67;fillColor=#808080;strokeColor=none;" edge="1" parent="1">
          <mxGeometry width="50" height="50" relative="1" as="geometry">
            <mxPoint x="360" y="160" as="sourcePoint" />
            <mxPoint x="430" y="160" as="targetPoint" />
          </mxGeometry>
        </mxCell>
        <mxCell id="6N2ncFl7vaVKxM3kQHem-5" value="" style="shape=flexArrow;endArrow=classic;html=1;rounded=0;width=14;endSize=5.67;fillColor=#808080;strokeColor=none;" edge="1" parent="1">
          <mxGeometry width="50" height="50" relative="1" as="geometry">
            <mxPoint x="360" y="220" as="sourcePoint" />
            <mxPoint x="410" y="220" as="targetPoint" />
          </mxGeometry>
        </mxCell>
        <mxCell id="6N2ncFl7vaVKxM3kQHem-6" value="" style="shape=flexArrow;endArrow=classic;html=1;rounded=0;width=14;endSize=5.67;strokeColor=none;fillColor=#808080;" edge="1" parent="1">
          <mxGeometry width="50" height="50" relative="1" as="geometry">
            <mxPoint x="360" y="280" as="sourcePoint" />
            <mxPoint x="420" y="280" as="targetPoint" />
          </mxGeometry>
        </mxCell>
        <mxCell id="6N2ncFl7vaVKxM3kQHem-7" value="" style="shape=flexArrow;endArrow=classic;html=1;rounded=0;width=14;endSize=5.67;fillColor=#808080;strokeColor=none;" edge="1" parent="1">
          <mxGeometry width="50" height="50" relative="1" as="geometry">
            <mxPoint x="360" y="340" as="sourcePoint" />
            <mxPoint x="410" y="340" as="targetPoint" />
          </mxGeometry>
        </mxCell>
        <mxCell id="6N2ncFl7vaVKxM3kQHem-8" value="" style="shape=flexArrow;endArrow=classic;html=1;rounded=0;width=14;endSize=5.67;fillColor=#808080;strokeColor=none;" edge="1" parent="1">
          <mxGeometry width="50" height="50" relative="1" as="geometry">
            <mxPoint x="490" y="160" as="sourcePoint" />
            <mxPoint x="560" y="160" as="targetPoint" />
          </mxGeometry>
        </mxCell>
        <mxCell id="6N2ncFl7vaVKxM3kQHem-9" value="" style="shape=flexArrow;endArrow=classic;html=1;rounded=0;width=14;endSize=5.67;fillColor=#808080;strokeColor=none;" edge="1" parent="1">
          <mxGeometry width="50" height="50" relative="1" as="geometry">
            <mxPoint x="490" y="220" as="sourcePoint" />
            <mxPoint x="590" y="220" as="targetPoint" />
          </mxGeometry>
        </mxCell>
        <mxCell id="6N2ncFl7vaVKxM3kQHem-10" value="" style="shape=flexArrow;endArrow=classic;html=1;rounded=0;width=14;endSize=5.67;strokeColor=none;fillColor=#808080;" edge="1" parent="1">
          <mxGeometry width="50" height="50" relative="1" as="geometry">
            <mxPoint x="490" y="280" as="sourcePoint" />
            <mxPoint x="570" y="280" as="targetPoint" />
          </mxGeometry>
        </mxCell>
        <mxCell id="6N2ncFl7vaVKxM3kQHem-11" value="" style="shape=flexArrow;endArrow=classic;html=1;rounded=0;width=14;endSize=5.67;fillColor=#808080;strokeColor=none;" edge="1" parent="1">
          <mxGeometry width="50" height="50" relative="1" as="geometry">
            <mxPoint x="490" y="340" as="sourcePoint" />
            <mxPoint x="540" y="340" as="targetPoint" />
          </mxGeometry>
        </mxCell>
        <mxCell id="6N2ncFl7vaVKxM3kQHem-12" value="" style="shape=flexArrow;endArrow=classic;html=1;rounded=0;width=14;endSize=5.67;fillColor=#808080;strokeColor=none;" edge="1" parent="1">
          <mxGeometry width="50" height="50" relative="1" as="geometry">
            <mxPoint x="670" y="160" as="sourcePoint" />
            <mxPoint x="740" y="160" as="targetPoint" />
          </mxGeometry>
        </mxCell>
        <mxCell id="6N2ncFl7vaVKxM3kQHem-13" value="" style="shape=flexArrow;endArrow=classic;html=1;rounded=0;width=14;endSize=5.67;fillColor=#808080;strokeColor=none;" edge="1" parent="1">
          <mxGeometry width="50" height="50" relative="1" as="geometry">
            <mxPoint x="670" y="220" as="sourcePoint" />
            <mxPoint x="760" y="220" as="targetPoint" />
          </mxGeometry>
        </mxCell>
        <mxCell id="6N2ncFl7vaVKxM3kQHem-14" value="" style="shape=flexArrow;endArrow=classic;html=1;rounded=0;width=14;endSize=5.67;strokeColor=none;fillColor=#808080;" edge="1" parent="1">
          <mxGeometry width="50" height="50" relative="1" as="geometry">
            <mxPoint x="670" y="280" as="sourcePoint" />
            <mxPoint x="770" y="280" as="targetPoint" />
          </mxGeometry>
        </mxCell>
        <mxCell id="6N2ncFl7vaVKxM3kQHem-15" value="" style="shape=flexArrow;endArrow=classic;html=1;rounded=0;width=14;endSize=5.67;fillColor=#808080;strokeColor=none;" edge="1" parent="1">
          <mxGeometry width="50" height="50" relative="1" as="geometry">
            <mxPoint x="670" y="340" as="sourcePoint" />
            <mxPoint x="750" y="340" as="targetPoint" />
          </mxGeometry>
        </mxCell>
      </root>
    </mxGraphModel>
  </diagram>
</mxfile>
